# xmcd
# Track frame offsets:
# 150
# 10800
# 22298
# 32107
# 41760
# 54618
# 65360
# 75528
# 88425
# 98193
# 108331
# 119894
#
# Disc length: 1737 seconds
# Revision: 0
# Processed by: cddbd v1.4PL0 Copyright (c) Steve Scherf et al.
# Submitted via: VisiTrax 2.9.5.181 - For more info visit www.synapsa.com
#
DISCID=a706c70c
DTITLE=Waylon Jennings - Only The Greatest
DYEAR=1900
DGENRE=
TTITLE0=Only Daddy That'll Walk The Line
TTITLE1=California Sunshine
TTITLE2=Weakness In A man
TTITLE3=Sorrow (Breaks A Good Man Down)
TTITLE4=Christina
TTITLE5=Such A Waste Of Love
TTITLE6=Walk On Out Of My Mind
TTITLE7=Kentucky Woman
TTITLE8=Going Gone
TTITLE9=You'll Think Of Me
TTITLE10=Wave Goodbye To Me
TTITLE11=Too Far Gone
EXTD=
EXTT0=
EXTT1=
EXTT2=
EXTT3=
EXTT4=
EXTT5=
EXTT6=
EXTT7=
EXTT8=
EXTT9=
EXTT10=
EXTT11=
PLAYORDER=
